<svg width="163.98" height="24" viewBox="0 0 205 30" fill="none" xmlns="http://www.w3.org/2000/svg">
  <path d="M0 0.00630951V30.0058H30.0008V12.0067H12.0011V18.0052H24.0009L24.0009 24.0074H5.99991V6.00459H30.0008V0.00616455L0 0.00630951Z" fill="white"/>
  <path d="M35.0007 0.00585938V30.0054H65.0002V24.0055H41.0006V0.00585938H35.0007Z" fill="white"/>
  <path d="M70.0001 0.0104828L70 6.00891H81.9998L82 24.0116H70.0002L70.0001 30.01H100.001L99.9993 24.0105H87.9993L87.9997 6.00891H100.001V0.0104828H70.0001Z" fill="white"/>
  <path d="M140.003 0.00585938V30.0054H170.002V24.0055H146.003V0.00585938H140.003Z" fill="white"/>
  <path d="M175.003 0.00585938V30.0054H205.002V24.0055H181.003V18.0056H199.002V12.0057H181.003V6.00577H205.002V0.00585938H175.003Z" fill="white"/>
  <path d="M104.999 0.00769997V30.0072H135V12.0081H117V18.0066H129V24.0088H110.999V6.00599H135V0.00755882L104.999 0.00769997Z" fill="white"/>
</svg>
